<svg width="103" height="39" viewBox="0 0 103 39" fill="none" xmlns="http://www.w3.org/2000/svg">
<path d="M11.8356 19.5C11.8356 24.2 15.6356 28 20.3356 28C25.0356 28 28.8356 24.2 28.8356 19.5C28.8356 14.8 25.0356 11 20.3356 11C15.6356 11 11.8356 14.8 11.8356 19.5ZM6.43561 19.5C6.43561 11.8 12.6356 5.6 20.3356 5.6C28.0356 5.6 34.2356 11.8 34.2356 19.5C34.2356 27.2 28.0356 33.4 20.3356 33.4C12.6356 33.4 6.43561 27.2 6.43561 19.5Z" fill="#BD1E1B"/>
<path d="M15.7356 19.5C15.7356 17 17.7356 15 20.2356 15C22.7356 15 24.7356 17 24.7356 19.5C24.7356 22 22.7356 24 20.2356 24C17.8356 24.1 15.7356 22 15.7356 19.5Z" fill="#BD1E1B"/>
<path d="M39.1256 19.396C39.1256 16.0507 39.7236 13.5807 40.9196 11.986C42.133 10.3913 43.7536 9.594 45.7816 9.594C47.8096 9.594 49.4216 10.374 50.6176 11.934C51.8136 13.494 52.4116 15.9293 52.4116 19.24C52.4116 22.568 51.8136 25.038 50.6176 26.65C49.4216 28.2447 47.8096 29.042 45.7816 29.042C43.7536 29.042 42.133 28.262 40.9196 26.702C39.7236 25.1247 39.1256 22.6893 39.1256 19.396ZM50.0196 19.24C50.0196 17.42 49.8376 15.964 49.4736 14.872C49.127 13.7627 48.633 12.9653 47.9916 12.48C47.3676 11.9773 46.631 11.726 45.7816 11.726C44.4816 11.726 43.4416 12.3327 42.6616 13.546C41.899 14.742 41.5176 16.692 41.5176 19.396C41.5176 21.216 41.691 22.6807 42.0376 23.79C42.4016 24.882 42.9043 25.6793 43.5456 26.182C44.187 26.6673 44.9323 26.91 45.7816 26.91C47.0643 26.91 48.087 26.312 48.8496 25.116C49.6296 23.92 50.0196 21.9613 50.0196 19.24Z" fill="black"/>
<path d="M55.9562 10.036H61.1301C62.7248 10.036 63.9382 10.5127 64.7702 11.466C65.6195 12.4193 66.0442 13.702 66.0442 15.314C66.0442 16.5273 65.8015 17.5673 65.3162 18.434C64.8482 19.3007 64.1635 19.9247 63.2622 20.306L67.1362 28.6H64.5102L60.9742 20.722H58.1922V28.6H55.9562V10.036ZM60.9482 18.772C61.8321 18.772 62.5168 18.5033 63.0022 17.966C63.5048 17.4113 63.7561 16.536 63.7561 15.34C63.7561 14.1093 63.4875 13.26 62.9502 12.792C62.4302 12.3067 61.7368 12.064 60.8702 12.064H58.1922V18.772H60.9482Z" fill="black"/>
<path d="M69.921 10.036H78.891V12.116H72.235V18.564H77.773V20.644H72.235V28.6H69.921V10.036Z" fill="black"/>
<path d="M80.0118 28.366C79.7172 28.054 79.5698 27.6553 79.5698 27.17C79.5698 26.6847 79.7172 26.2947 80.0118 26C80.3065 25.688 80.6705 25.532 81.1038 25.532C81.5545 25.532 81.9185 25.688 82.1958 26C82.4905 26.2947 82.6378 26.6847 82.6378 27.17C82.6378 27.6553 82.4905 28.054 82.1958 28.366C81.9185 28.6607 81.5545 28.808 81.1038 28.808C80.6705 28.808 80.3065 28.6607 80.0118 28.366Z" fill="black"/>
<path d="M93.272 26.026C93.272 26.39 93.3414 26.65 93.48 26.806C93.6187 26.9447 93.8527 27.014 94.182 27.014C94.2687 27.014 94.3467 27.014 94.416 27.014C94.4854 26.9967 94.5807 26.9793 94.702 26.962L94.546 28.574C94.1647 28.678 93.7747 28.73 93.376 28.73C92.8387 28.73 92.388 28.6087 92.024 28.366C91.66 28.106 91.4174 27.6813 91.296 27.092C91.0014 27.612 90.6027 28.0367 90.1 28.366C89.5974 28.6953 88.9907 28.86 88.28 28.86C87.292 28.86 86.4514 28.4873 85.758 27.742C85.0647 26.9793 84.718 25.9567 84.718 24.674C84.718 23.3913 85.082 22.4033 85.81 21.71C86.5554 21.0167 87.5 20.67 88.644 20.67H91.114V19.318C91.114 18.278 90.958 17.5413 90.646 17.108C90.334 16.6747 89.8227 16.458 89.112 16.458C88.176 16.458 87.2314 16.9087 86.278 17.81L85.446 16.224C86.0007 15.6693 86.5814 15.2533 87.188 14.976C87.812 14.6987 88.5054 14.56 89.268 14.56C90.6547 14.56 91.6687 14.9327 92.31 15.678C92.9514 16.4233 93.272 17.6193 93.272 19.266V26.026ZM91.114 22.386H89.034C88.4967 22.386 88.0114 22.568 87.578 22.932C87.1447 23.2787 86.928 23.868 86.928 24.7C86.928 25.532 87.1014 26.13 87.448 26.494C87.7947 26.8407 88.2454 27.014 88.8 27.014C89.7707 27.014 90.542 26.52 91.114 25.532V22.386Z" fill="black"/>
<path d="M97.378 16.666H95.168V14.872H97.378V11.778L99.614 10.972V14.872H102.396V16.666H99.614V25.48C99.614 26.0347 99.7354 26.416 99.978 26.624C100.238 26.832 100.593 26.936 101.044 26.936C101.235 26.936 101.443 26.9187 101.668 26.884C101.893 26.8493 102.171 26.7887 102.5 26.702L102.344 28.47C101.963 28.5913 101.599 28.678 101.252 28.73C100.905 28.782 100.585 28.808 100.29 28.808C99.3887 28.808 98.678 28.5567 98.158 28.054C97.638 27.5513 97.378 26.7193 97.378 25.558V16.666Z" fill="black"/>
</svg>
